<svg width="12" height="13" viewBox="0 0 12 13" fill="none" xmlns="http://www.w3.org/2000/svg">
<path fill-rule="evenodd" clip-rule="evenodd" d="M5.63052 0.627273C5.8476 0.457576 6.1524 0.457576 6.36948 0.627273L7.36506 1.40544L8.61636 1.22932C8.88924 1.19091 9.15318 1.3433 9.25638 1.59882L9.72948 2.77053L10.9012 3.24364C11.1567 3.34682 11.3091 3.61076 11.2707 3.88363L11.0945 5.13492L11.8727 6.13052C12.0424 6.3476 12.0424 6.6524 11.8727 6.86948L11.0945 7.86506L11.2707 9.11636C11.3091 9.38924 11.1567 9.65318 10.9012 9.75638L9.72948 10.2295L9.25638 11.4012C9.15318 11.6567 8.88924 11.8091 8.61636 11.7707L7.36506 11.5945L6.36948 12.3727C6.1524 12.5424 5.8476 12.5424 5.63052 12.3727L4.63492 11.5945L3.38363 11.7707C3.11076 11.8091 2.84682 11.6567 2.74364 11.4012L2.27053 10.2295L1.09882 9.75638C0.843301 9.65318 0.690913 9.38924 0.729319 9.11636L0.905443 7.86506L0.127273 6.86948C-0.0424245 6.6524 -0.0424245 6.3476 0.127273 6.13052L0.905443 5.13492L0.729319 3.88363C0.690913 3.61076 0.843301 3.34682 1.09882 3.24364L2.27053 2.77053L2.74364 1.59882C2.84682 1.3433 3.11076 1.19091 3.38363 1.22932L4.63492 1.40544L5.63052 0.627273ZM8.22426 5.72426C8.45856 5.48996 8.45856 5.11005 8.22426 4.87573C7.98996 4.64142 7.61004 4.64142 7.37574 4.87573L5.4 6.85148L4.62427 6.07574C4.38995 5.84144 4.01005 5.84144 3.77573 6.07574C3.54142 6.31004 3.54142 6.68996 3.77573 6.92426L4.97574 8.12426C5.21004 8.35856 5.58996 8.35856 5.82426 8.12426L8.22426 5.72426Z" fill="#2AC0D4"/>
</svg>
